<svg id="svg" version="1.1" xmlns="http://www.w3.org/2000/svg" xmlns:xlink="http://www.w3.org/1999/xlink" width="600" height="150" viewBox="0,0 , 400,60">
<g id="svgg">
<path id="path0" d="M221.611 2.278 C 221.433 2.456,221.483 2.863,221.669 2.748 C 221.763 2.691,221.800 2.580,221.752 2.503 C 221.704 2.425,221.759 2.324,221.874 2.277 C 221.990 2.231,222.003 2.187,221.903 2.180 C 221.803 2.173,221.672 2.217,221.611 2.278 M173.572 7.000 C 173.572 9.337,173.596 10.294,173.625 9.125 C 173.653 7.956,173.653 6.044,173.625 4.875 C 173.596 3.706,173.572 4.662,173.572 7.000 M39.112 3.931 C 39.165 4.069,39.248 4.141,39.297 4.092 C 39.346 4.043,39.487 4.086,39.610 4.189 C 39.735 4.293,39.833 4.304,39.833 4.214 C 39.833 4.126,39.649 3.970,39.425 3.867 C 39.083 3.711,39.032 3.722,39.112 3.931 M313.184 4.655 C 313.056 4.735,312.996 4.917,313.051 5.060 C 313.135 5.279,312.950 5.327,311.867 5.368 C 310.991 5.401,310.577 5.483,310.563 5.625 C 310.551 5.740,310.532 5.908,310.521 6.000 C 310.509 6.092,310.244 6.167,309.930 6.167 C 309.145 6.167,308.833 6.314,308.833 6.684 C 308.833 6.933,308.711 7.000,308.264 7.000 C 307.612 7.000,307.135 7.148,307.240 7.317 C 307.392 7.562,307.040 7.835,306.491 7.897 C 306.175 7.933,305.852 7.971,305.772 7.981 C 305.693 7.992,305.667 8.150,305.715 8.333 C 305.787 8.608,305.720 8.667,305.336 8.667 C 304.977 8.667,304.845 8.763,304.765 9.083 C 304.697 9.352,304.543 9.500,304.330 9.500 C 304.089 9.500,304.000 9.612,304.000 9.917 C 304.000 10.250,303.917 10.333,303.583 10.333 C 303.250 10.333,303.167 10.417,303.167 10.750 C 303.167 11.083,303.083 11.167,302.750 11.167 C 302.417 11.167,302.333 11.250,302.333 11.583 C 302.333 11.906,302.248 12.000,301.952 12.000 C 301.682 12.000,301.563 12.104,301.544 12.357 C 301.529 12.553,301.326 12.914,301.092 13.158 C 300.851 13.409,300.667 13.796,300.667 14.051 C 300.667 14.419,300.591 14.500,300.250 14.500 C 299.862 14.500,299.833 14.556,299.833 15.322 C 299.833 16.047,299.789 16.150,299.458 16.197 C 299.139 16.242,299.076 16.366,299.033 17.033 C 298.992 17.660,298.931 17.796,298.724 17.717 C 298.335 17.568,298.172 17.975,298.169 19.107 C 298.167 20.059,298.137 20.138,297.750 20.235 C 297.357 20.334,297.333 20.404,297.333 21.464 C 297.333 22.469,297.294 22.605,296.958 22.752 C 296.588 22.915,296.583 22.962,296.538 26.542 L 296.493 30.167 296.080 30.167 L 295.667 30.167 295.667 33.833 L 295.667 37.500 296.080 37.500 L 296.493 37.500 296.538 41.125 C 296.573 43.876,296.634 44.755,296.792 44.771 C 296.906 44.782,297.072 44.801,297.159 44.813 C 297.247 44.824,297.341 45.377,297.368 46.042 C 297.413 47.150,297.448 47.254,297.792 47.303 C 298.147 47.354,298.331 48.457,298.179 49.625 C 298.164 49.744,298.334 49.833,298.576 49.833 C 298.974 49.833,299.000 49.885,299.000 50.667 C 299.000 51.444,299.028 51.500,299.417 51.500 C 299.806 51.500,299.833 51.555,299.833 52.343 C 299.833 52.807,299.902 53.144,299.985 53.093 C 300.275 52.913,300.667 53.205,300.667 53.601 C 300.667 53.915,300.755 54.000,301.083 54.000 C 301.490 54.000,301.626 54.407,301.514 55.287 C 301.499 55.399,301.678 55.538,301.910 55.597 C 302.216 55.673,302.333 55.814,302.333 56.101 C 302.333 56.415,302.422 56.500,302.750 56.500 C 303.088 56.500,303.167 56.582,303.167 56.936 C 303.167 57.298,303.227 57.357,303.519 57.280 C 303.795 57.208,303.910 57.293,304.055 57.677 C 304.164 57.966,304.361 58.167,304.537 58.167 C 304.722 58.167,304.833 58.291,304.833 58.500 C 304.833 58.697,304.953 58.844,305.125 58.859 C 305.285 58.873,305.492 58.902,305.583 58.923 C 305.675 58.944,305.876 58.970,306.030 58.981 C 306.186 58.991,306.334 59.166,306.363 59.375 C 306.393 59.581,306.529 59.760,306.667 59.772 C 306.804 59.785,307.010 59.804,307.125 59.814 C 307.240 59.825,307.333 59.992,307.333 60.186 C 307.333 60.457,307.411 60.519,307.667 60.452 C 307.850 60.404,308.000 60.433,308.000 60.516 C 308.000 60.599,308.188 60.667,308.417 60.667 C 308.671 60.667,308.833 60.762,308.833 60.911 C 308.833 61.286,309.389 61.500,310.366 61.500 C 311.127 61.500,311.278 61.554,311.419 61.875 C 311.562 62.202,311.720 62.254,312.651 62.282 C 313.654 62.312,314.107 62.525,313.896 62.867 C 313.851 62.940,317.528 63.000,322.068 63.000 C 329.072 63.000,330.309 62.965,330.233 62.767 C 330.096 62.409,330.408 62.308,331.629 62.312 C 332.860 62.316,333.667 62.086,333.667 61.730 C 333.667 61.527,334.513 61.383,335.073 61.491 C 335.487 61.570,336.000 61.302,336.000 61.006 C 336.000 60.741,336.139 60.676,336.792 60.634 C 337.467 60.591,337.591 60.528,337.637 60.208 C 337.687 59.851,338.143 59.716,338.954 59.820 C 339.066 59.834,339.205 59.655,339.263 59.423 C 339.351 59.072,339.468 59.000,339.945 59.000 C 340.261 59.000,340.479 58.933,340.428 58.852 C 340.378 58.771,340.467 58.715,340.627 58.727 C 340.808 58.741,340.908 58.641,340.894 58.458 C 340.881 58.298,340.956 58.158,341.060 58.147 C 341.165 58.137,341.363 58.118,341.500 58.106 C 341.637 58.093,341.774 57.915,341.803 57.708 C 341.842 57.437,341.968 57.333,342.262 57.333 C 342.583 57.333,342.667 57.247,342.667 56.917 C 342.667 56.536,342.883 56.403,343.375 56.480 C 343.444 56.491,343.500 56.318,343.500 56.095 C 343.500 55.802,343.604 55.675,343.875 55.637 L 344.250 55.583 344.288 43.712 L 344.327 31.842 331.997 31.835 L 319.667 31.829 319.667 36.755 C 319.667 40.599,319.712 41.675,319.875 41.654 C 319.990 41.639,322.390 41.636,325.208 41.647 L 330.333 41.667 330.333 45.833 C 330.333 50.017,330.321 50.111,329.777 50.015 C 329.701 50.001,329.599 50.138,329.552 50.319 C 329.505 50.500,329.305 50.671,329.108 50.699 C 328.884 50.731,328.730 50.890,328.697 51.125 C 328.645 51.492,328.163 51.612,327.140 51.511 C 326.987 51.496,326.814 51.564,326.753 51.661 C 326.693 51.759,326.579 51.799,326.500 51.750 C 326.422 51.702,326.309 51.813,326.251 51.998 C 326.148 52.321,326.007 52.333,322.432 52.333 L 318.720 52.333 318.526 51.906 C 318.413 51.660,318.208 51.492,318.041 51.509 C 317.144 51.600,316.863 51.504,316.959 51.140 C 317.038 50.837,316.996 50.795,316.693 50.875 C 316.495 50.926,316.333 50.906,316.333 50.829 C 316.333 50.752,316.127 50.665,315.875 50.636 C 315.558 50.600,315.431 50.499,315.462 50.309 C 315.490 50.133,315.327 49.972,315.005 49.860 C 314.666 49.742,314.534 49.605,314.598 49.439 C 314.662 49.273,314.567 49.175,314.304 49.138 C 314.057 49.103,313.898 48.954,313.865 48.724 C 313.834 48.505,313.655 48.325,313.407 48.262 C 313.147 48.197,313.000 48.041,313.000 47.830 C 313.000 47.589,312.888 47.500,312.583 47.500 C 312.194 47.500,312.167 47.444,312.167 46.667 C 312.167 45.889,312.139 45.833,311.750 45.833 C 311.349 45.833,311.157 44.805,311.321 43.542 C 311.336 43.423,311.167 43.333,310.929 43.333 L 310.509 43.333 310.463 40.958 C 310.421 38.821,310.388 38.586,310.127 38.606 C 309.967 38.619,309.878 38.562,309.928 38.481 C 309.979 38.400,309.940 38.333,309.843 38.333 C 309.605 38.333,309.596 28.509,309.833 28.479 C 309.925 28.468,310.094 28.449,310.208 28.438 C 310.358 28.423,310.440 27.828,310.500 26.333 C 310.578 24.389,310.606 24.250,310.917 24.250 C 311.215 24.250,311.255 24.123,311.299 23.042 C 311.345 21.907,311.371 21.833,311.730 21.833 C 312.070 21.833,312.116 21.747,312.142 21.053 C 312.176 20.159,312.177 20.158,312.648 20.122 C 312.896 20.104,313.000 19.983,313.000 19.715 C 313.000 19.452,313.098 19.333,313.316 19.333 C 313.685 19.333,313.833 19.022,313.833 18.248 C 313.833 17.796,313.905 17.680,314.208 17.637 C 314.449 17.602,314.602 17.449,314.637 17.208 C 314.681 16.898,314.795 16.833,315.303 16.831 C 316.004 16.828,316.264 16.692,316.254 16.333 C 316.250 16.154,316.484 16.060,317.082 16.000 C 317.676 15.941,317.917 15.845,317.917 15.667 C 317.917 15.342,318.908 15.195,321.083 15.198 C 323.587 15.201,324.595 15.350,324.534 15.708 C 324.493 15.954,324.618 16.000,325.326 16.000 C 326.148 16.000,326.250 16.075,326.179 16.625 C 326.164 16.742,326.330 16.833,326.558 16.833 C 326.856 16.833,326.993 16.948,327.072 17.265 C 327.147 17.561,327.260 17.667,327.433 17.600 C 327.607 17.533,327.740 17.661,327.862 18.012 C 327.979 18.345,328.121 18.489,328.276 18.430 C 328.514 18.339,328.868 18.959,328.721 19.208 C 328.680 19.277,328.839 19.333,329.073 19.333 C 329.474 19.333,329.500 19.384,329.500 20.167 C 329.500 20.625,329.556 20.991,329.625 20.980 C 330.278 20.877,330.320 20.972,330.369 22.625 L 330.417 24.250 337.330 24.250 L 344.243 24.250 344.297 23.583 C 344.383 22.506,344.202 21.833,343.826 21.833 C 343.526 21.833,343.309 19.356,343.491 18.025 C 343.508 17.901,343.442 17.849,343.344 17.910 C 343.247 17.970,343.167 17.940,343.167 17.843 C 343.167 17.746,343.054 17.667,342.917 17.667 C 342.732 17.667,342.662 17.460,342.649 16.875 C 342.618 15.476,342.601 15.419,342.208 15.363 C 341.932 15.324,341.829 15.193,341.816 14.863 C 341.774 13.825,341.746 13.749,341.375 13.697 C 341.104 13.658,341.000 13.532,341.000 13.238 C 341.000 12.917,340.913 12.833,340.583 12.833 C 340.233 12.833,340.167 12.755,340.167 12.343 C 340.167 12.074,340.092 11.807,340.000 11.750 C 339.908 11.693,339.834 11.558,339.836 11.448 C 339.837 11.326,339.906 11.346,340.015 11.500 C 340.172 11.722,340.185 11.722,340.125 11.500 C 340.088 11.362,339.894 11.226,339.695 11.197 C 339.438 11.159,339.333 11.027,339.333 10.738 C 339.333 10.417,339.247 10.333,338.917 10.333 C 338.583 10.333,338.500 10.250,338.500 9.917 C 338.500 9.583,338.417 9.500,338.083 9.500 C 337.748 9.500,337.667 9.417,337.667 9.076 C 337.667 8.834,337.577 8.664,337.458 8.679 C 336.575 8.794,336.000 8.651,336.000 8.318 C 336.000 8.108,335.866 7.934,335.665 7.881 C 335.481 7.833,335.286 7.619,335.232 7.405 C 335.150 7.079,335.012 7.009,334.359 6.967 C 333.711 6.925,333.583 6.862,333.583 6.583 C 333.583 6.306,333.456 6.242,332.828 6.201 C 332.236 6.162,332.038 6.072,331.911 5.784 C 331.732 5.375,331.753 5.379,329.970 5.353 C 328.776 5.335,328.686 5.308,328.637 4.958 L 328.583 4.583 321.000 4.547 C 316.829 4.527,313.312 4.576,313.184 4.655 M367.599 4.623 C 367.544 4.678,367.500 4.860,367.500 5.028 C 367.500 5.297,367.351 5.333,366.250 5.333 C 365.563 5.333,365.009 5.390,365.020 5.458 C 365.115 6.060,364.986 6.167,364.167 6.167 C 363.389 6.167,363.333 6.194,363.333 6.583 C 363.333 6.972,363.278 7.000,362.500 7.000 C 362.042 7.000,361.676 7.056,361.686 7.125 C 361.776 7.692,361.639 7.817,360.875 7.866 C 360.199 7.909,360.076 7.972,360.030 8.292 C 359.984 8.619,359.728 8.755,359.292 8.686 C 359.223 8.676,359.167 8.854,359.167 9.083 C 359.167 9.417,359.083 9.500,358.750 9.500 C 358.521 9.500,358.342 9.556,358.353 9.625 C 358.431 10.117,358.298 10.333,357.917 10.333 C 357.687 10.333,357.509 10.390,357.520 10.458 C 357.597 10.951,357.464 11.167,357.083 11.167 C 356.854 11.167,356.676 11.223,356.686 11.292 C 356.765 11.787,356.631 12.000,356.243 12.000 C 356.000 12.000,355.830 12.089,355.846 12.208 C 355.905 12.664,355.817 12.812,355.458 12.863 C 355.221 12.897,355.083 13.032,355.082 13.231 C 355.082 13.405,354.914 13.608,354.707 13.684 C 354.349 13.817,354.273 14.043,354.282 14.958 C 354.285 15.242,354.191 15.333,353.893 15.333 C 353.641 15.333,353.490 15.438,353.471 15.625 C 353.456 15.785,353.426 16.029,353.406 16.167 C 353.385 16.304,353.361 16.505,353.351 16.614 C 353.341 16.722,353.183 16.858,353.000 16.917 C 352.734 17.001,352.667 17.169,352.667 17.743 C 352.667 18.369,352.613 18.477,352.257 18.567 C 351.876 18.662,351.845 18.752,351.799 19.876 C 351.753 20.998,351.725 21.080,351.396 21.035 C 351.058 20.988,351.041 21.059,351.012 22.613 C 350.979 24.427,351.003 24.341,350.516 24.378 L 350.162 24.405 350.169 33.869 L 350.177 43.333 350.589 43.333 C 350.997 43.333,351.000 43.345,351.000 44.899 C 351.000 46.429,351.009 46.466,351.417 46.568 C 351.811 46.667,351.833 46.734,351.833 47.837 C 351.833 48.966,351.845 49.000,352.250 49.000 C 352.639 49.000,352.667 49.056,352.667 49.833 C 352.667 50.556,352.711 50.667,353.000 50.667 C 353.183 50.667,353.341 50.760,353.351 50.875 C 353.361 50.990,353.385 51.196,353.406 51.333 C 353.426 51.471,353.456 51.752,353.471 51.958 C 353.490 52.208,353.608 52.333,353.822 52.333 C 354.029 52.333,354.163 52.467,354.197 52.708 C 354.231 52.949,354.384 53.102,354.625 53.137 C 354.961 53.184,355.096 53.454,355.009 53.906 C 354.930 54.318,355.198 54.833,355.492 54.833 C 355.695 54.833,355.829 54.969,355.863 55.208 C 355.898 55.449,356.051 55.602,356.292 55.637 C 356.563 55.675,356.667 55.802,356.667 56.095 C 356.667 56.318,356.723 56.491,356.792 56.480 C 357.284 56.403,357.500 56.536,357.500 56.917 C 357.500 57.247,357.584 57.333,357.905 57.333 C 358.198 57.333,358.325 57.437,358.363 57.708 C 358.397 57.944,358.551 58.102,358.776 58.135 C 358.995 58.166,359.175 58.345,359.238 58.593 C 359.300 58.842,359.460 59.000,359.650 59.000 C 359.831 59.000,360.002 59.154,360.057 59.368 C 360.110 59.570,360.206 59.683,360.270 59.619 C 360.334 59.555,360.479 59.580,360.592 59.674 C 360.705 59.768,360.862 59.834,360.941 59.819 C 361.385 59.740,361.650 59.876,361.697 60.208 C 361.735 60.476,361.869 60.589,362.167 60.604 C 362.396 60.615,362.744 60.634,362.940 60.646 C 363.173 60.659,363.334 60.812,363.402 61.083 C 363.494 61.450,363.596 61.500,364.253 61.500 C 364.947 61.500,365.089 61.600,365.020 62.042 C 365.009 62.110,365.169 62.180,365.375 62.195 C 366.215 62.259,366.770 62.297,367.125 62.315 C 367.383 62.328,367.500 62.438,367.500 62.667 C 367.500 62.995,367.611 63.000,374.833 63.000 C 382.056 63.000,382.167 62.995,382.167 62.667 C 382.167 62.337,382.454 62.246,383.231 62.328 C 383.954 62.406,384.667 62.156,384.667 61.826 C 384.667 61.569,384.789 61.496,385.250 61.479 C 386.214 61.445,386.248 61.431,386.303 61.042 C 386.349 60.717,386.456 60.667,387.092 60.667 C 387.737 60.667,387.840 60.616,387.932 60.250 C 388.017 59.911,388.138 59.833,388.588 59.833 C 389.251 59.833,389.696 59.682,389.581 59.496 C 389.452 59.288,390.013 58.803,390.269 58.901 C 390.394 58.949,390.488 58.934,390.478 58.869 C 390.405 58.378,390.537 58.167,390.917 58.167 C 391.250 58.167,391.333 58.083,391.333 57.750 C 391.333 57.417,391.417 57.333,391.750 57.333 C 392.083 57.333,392.167 57.250,392.167 56.917 C 392.167 56.583,392.250 56.500,392.583 56.500 C 392.917 56.500,393.000 56.417,393.000 56.083 C 393.000 55.702,393.216 55.569,393.708 55.647 C 393.777 55.658,393.833 55.487,393.833 55.268 C 393.833 54.978,393.951 54.840,394.265 54.761 C 394.558 54.688,394.666 54.573,394.602 54.404 C 394.539 54.242,394.655 54.100,394.937 53.992 C 395.226 53.882,395.335 53.745,395.269 53.572 C 395.213 53.426,395.241 53.360,395.335 53.418 C 395.432 53.478,395.500 53.275,395.500 52.927 C 395.500 52.600,395.575 52.324,395.667 52.313 C 395.758 52.301,395.927 52.282,396.042 52.270 C 396.233 52.250,396.270 52.087,396.317 51.053 C 396.328 50.810,396.457 50.672,396.708 50.637 C 397.025 50.592,397.091 50.466,397.133 49.828 C 397.171 49.236,397.261 49.038,397.549 48.911 C 397.926 48.746,397.952 48.650,397.982 47.292 C 397.997 46.629,398.052 46.500,398.319 46.500 C 398.692 46.500,398.844 45.784,398.776 44.358 C 398.738 43.561,398.774 43.451,399.117 43.321 L 399.500 43.175 399.500 33.833 L 399.500 24.492 399.117 24.346 C 398.775 24.216,398.737 24.103,398.770 23.308 C 398.827 21.930,398.677 21.208,398.314 21.113 C 398.116 21.062,397.992 20.871,397.979 20.599 C 397.955 20.089,397.891 19.550,397.835 19.375 C 397.813 19.306,397.810 19.108,397.829 18.935 C 397.854 18.692,397.783 18.641,397.514 18.711 C 397.207 18.792,397.167 18.729,397.167 18.165 C 397.167 17.312,397.028 17.000,396.649 17.000 C 396.438 17.000,396.328 16.876,396.317 16.625 C 396.266 15.472,396.247 15.416,395.875 15.363 C 395.548 15.317,395.411 15.062,395.480 14.625 C 395.491 14.556,395.313 14.500,395.083 14.500 C 394.744 14.500,394.663 14.415,394.649 14.042 C 394.608 12.992,394.580 12.916,394.208 12.863 C 393.937 12.825,393.833 12.698,393.833 12.405 C 393.833 12.084,393.747 12.000,393.417 12.000 C 393.083 12.000,393.000 11.917,393.000 11.583 C 393.000 11.250,392.917 11.167,392.583 11.167 C 392.250 11.167,392.167 11.083,392.167 10.750 C 392.167 10.417,392.083 10.333,391.750 10.333 C 391.417 10.333,391.333 10.250,391.333 9.917 C 391.333 9.583,391.250 9.500,390.917 9.500 C 390.583 9.500,390.500 9.417,390.500 9.083 C 390.500 8.762,390.414 8.667,390.123 8.667 C 389.892 8.667,389.682 8.522,389.581 8.292 C 389.454 8.002,389.255 7.905,388.708 7.865 C 388.082 7.820,388.000 7.767,388.000 7.407 C 388.000 7.030,387.939 7.000,387.167 7.000 C 386.389 7.000,386.333 6.972,386.333 6.583 C 386.333 6.195,386.277 6.167,385.512 6.167 C 384.786 6.167,384.684 6.123,384.637 5.792 C 384.581 5.399,384.562 5.394,383.018 5.354 C 382.292 5.336,382.191 5.287,382.097 4.911 L 381.991 4.488 374.844 4.507 C 370.914 4.517,367.653 4.569,367.599 4.623 M46.079 10.603 C 46.228 10.752,46.400 10.823,46.461 10.761 C 46.523 10.699,46.463 10.579,46.329 10.493 C 45.935 10.244,45.786 10.310,46.079 10.603 M260.667 11.343 C 260.667 11.440,260.592 11.473,260.500 11.417 C 260.408 11.360,260.333 11.393,260.333 11.490 C 260.333 11.745,260.592 11.707,260.833 11.417 C 260.977 11.244,260.983 11.167,260.854 11.167 C 260.751 11.167,260.667 11.246,260.667 11.343 M4.743 12.178 C 4.683 12.276,4.678 12.401,4.733 12.456 C 4.788 12.511,4.833 12.464,4.833 12.351 C 4.833 12.239,4.903 12.190,4.988 12.243 C 5.074 12.296,5.191 12.263,5.248 12.169 C 5.306 12.076,5.241 12.000,5.103 12.000 C 4.966 12.000,4.804 12.080,4.743 12.178 M3.910 13.844 C 3.849 13.942,3.845 14.067,3.900 14.122 C 3.955 14.177,4.000 14.130,4.000 14.018 C 4.000 13.906,4.070 13.857,4.155 13.910 C 4.240 13.962,4.357 13.929,4.415 13.836 C 4.473 13.743,4.407 13.667,4.270 13.667 C 4.132 13.667,3.970 13.747,3.910 13.844 M19.835 13.915 C 19.722 14.051,19.562 14.122,19.481 14.072 C 19.400 14.021,19.333 14.060,19.333 14.157 C 19.333 14.254,19.403 14.333,19.488 14.333 C 19.643 14.333,20.167 13.874,20.167 13.738 C 20.167 13.601,20.039 13.669,19.835 13.915 M217.533 13.867 C 217.423 13.977,217.333 14.214,217.333 14.394 C 217.333 14.772,217.505 14.667,217.566 14.252 C 217.588 14.099,217.714 13.905,217.845 13.823 C 217.976 13.740,218.005 13.671,217.908 13.669 C 217.812 13.668,217.643 13.757,217.533 13.867 M377.333 15.667 C 377.333 15.956,377.444 16.000,378.167 16.000 C 378.944 16.000,379.000 16.028,379.000 16.417 C 379.000 16.646,379.056 16.824,379.125 16.814 C 380.014 16.673,380.667 16.858,380.667 17.250 C 380.667 17.583,380.750 17.667,381.083 17.667 C 381.417 17.667,381.500 17.750,381.500 18.083 C 381.500 18.417,381.583 18.500,381.917 18.500 C 382.250 18.500,382.333 18.583,382.333 18.917 C 382.333 19.250,382.417 19.333,382.750 19.333 C 383.139 19.333,383.167 19.389,383.167 20.167 C 383.167 20.944,383.194 21.000,383.583 21.000 C 383.972 21.000,384.000 21.056,384.000 21.833 C 384.000 22.598,384.032 22.667,384.394 22.667 C 384.762 22.667,384.784 22.720,384.726 23.458 C 384.638 24.587,384.792 25.167,385.180 25.167 C 385.559 25.167,385.541 24.970,385.509 28.676 C 385.484 31.645,385.611 32.500,386.079 32.500 C 386.503 32.500,386.445 34.932,386.018 35.044 C 385.572 35.160,385.473 35.968,385.510 39.184 C 385.550 42.628,385.563 42.500,385.180 42.500 C 384.792 42.500,384.638 43.079,384.726 44.208 C 384.784 44.947,384.762 45.000,384.394 45.000 C 384.032 45.000,384.000 45.068,384.000 45.833 C 384.000 46.611,383.972 46.667,383.583 46.667 C 383.196 46.667,383.167 46.724,383.167 47.472 C 383.167 48.199,383.131 48.275,382.792 48.263 C 382.536 48.254,382.401 48.358,382.368 48.588 C 382.342 48.775,382.156 49.000,381.957 49.088 C 381.757 49.177,381.554 49.401,381.505 49.586 C 381.453 49.783,381.278 49.921,381.083 49.919 C 380.864 49.918,380.732 50.044,380.697 50.292 C 380.667 50.498,380.555 50.676,380.447 50.688 C 380.339 50.700,380.088 50.727,379.890 50.748 C 379.252 50.816,378.962 50.993,379.061 51.251 C 379.130 51.432,379.033 51.504,378.703 51.516 C 377.481 51.561,377.417 51.582,377.363 51.958 C 377.311 52.328,377.275 52.333,374.833 52.333 C 372.392 52.333,372.356 52.328,372.303 51.958 C 372.258 51.638,372.134 51.576,371.458 51.533 C 370.896 51.496,370.667 51.411,370.667 51.237 C 370.667 50.963,370.018 50.667,369.417 50.667 C 369.135 50.667,369.008 50.560,368.970 50.292 C 368.936 50.051,368.783 49.898,368.542 49.863 C 368.302 49.829,368.167 49.695,368.167 49.492 C 368.167 49.291,368.013 49.134,367.750 49.068 C 367.481 49.001,367.333 48.847,367.333 48.633 C 367.333 48.448,367.194 48.266,367.017 48.219 C 366.790 48.160,366.669 47.927,366.590 47.402 C 366.503 46.823,366.411 46.667,366.156 46.667 C 365.966 46.667,365.827 46.547,365.818 46.375 C 365.810 46.215,365.791 45.858,365.776 45.583 C 365.756 45.205,365.661 45.071,365.382 45.031 C 365.047 44.983,365.010 44.872,364.965 43.781 C 364.921 42.683,364.885 42.579,364.542 42.530 C 364.176 42.478,364.166 42.422,364.149 40.363 C 364.125 37.495,364.140 37.591,363.708 37.530 L 363.333 37.477 363.333 33.825 L 363.333 30.173 363.750 30.068 L 364.167 29.964 364.167 27.498 C 364.167 25.054,364.170 25.032,364.526 25.125 C 364.772 25.190,364.848 25.158,364.766 25.026 C 364.701 24.920,364.710 24.833,364.787 24.833 C 364.864 24.833,364.944 24.375,364.965 23.815 C 365.009 22.639,365.076 22.476,365.449 22.619 C 365.631 22.689,365.681 22.659,365.601 22.528 C 365.535 22.421,365.560 22.333,365.657 22.333 C 365.755 22.333,365.824 22.127,365.810 21.875 C 365.771 21.117,365.818 21.000,366.167 21.000 C 366.413 21.000,366.507 20.880,366.525 20.542 C 366.539 20.290,366.568 20.008,366.589 19.917 C 366.611 19.825,366.637 19.656,366.647 19.542 C 366.658 19.427,366.817 19.333,367.000 19.333 C 367.242 19.333,367.333 19.222,367.333 18.928 C 367.333 18.635,367.437 18.508,367.708 18.470 C 367.949 18.436,368.102 18.283,368.137 18.042 C 368.175 17.770,368.302 17.667,368.595 17.667 C 368.916 17.667,369.000 17.580,369.000 17.250 C 369.000 16.861,369.056 16.833,369.833 16.833 C 370.611 16.833,370.667 16.806,370.667 16.417 C 370.667 16.028,370.722 16.000,371.500 16.000 C 372.222 16.000,372.333 15.956,372.333 15.667 C 372.333 15.348,372.444 15.333,374.833 15.333 C 377.222 15.333,377.333 15.348,377.333 15.667 M16.451 19.005 C 16.296 19.186,16.235 19.333,16.315 19.333 C 16.498 19.333,16.906 18.850,16.807 18.751 C 16.766 18.710,16.606 18.824,16.451 19.005 M102.167 19.646 C 102.167 19.727,102.279 19.886,102.417 20.000 C 102.688 20.225,102.722 20.171,102.566 19.764 C 102.458 19.485,102.167 19.399,102.167 19.646 M190.892 24.833 C 190.892 25.613,190.920 25.931,190.955 25.542 C 190.990 25.152,190.990 24.515,190.955 24.125 C 190.920 23.735,190.892 24.054,190.892 24.833 M15.241 30.583 C 15.240 33.333,15.263 34.482,15.291 33.135 C 15.319 31.789,15.319 29.539,15.291 28.135 C 15.263 26.732,15.241 27.833,15.241 30.583 M1.240 30.500 C 1.240 33.021,1.263 34.052,1.291 32.792 C 1.320 31.531,1.320 29.469,1.291 28.208 C 1.263 26.948,1.240 27.979,1.240 30.500 M286.079 26.270 C 286.228 26.418,286.400 26.489,286.461 26.427 C 286.523 26.366,286.463 26.245,286.329 26.160 C 285.935 25.911,285.786 25.977,286.079 26.270 M212.833 27.843 C 212.833 27.940,212.758 27.973,212.667 27.917 C 212.575 27.860,212.500 27.893,212.500 27.990 C 212.500 28.245,212.759 28.207,213.000 27.917 C 213.143 27.744,213.150 27.667,213.020 27.667 C 212.918 27.667,212.833 27.746,212.833 27.843 M252.997 31.254 C 252.685 31.630,252.866 31.673,253.237 31.312 C 253.414 31.140,253.479 31.000,253.383 31.000 C 253.286 31.000,253.113 31.114,252.997 31.254 M225.578 49.250 C 225.578 54.383,225.599 56.507,225.625 53.970 C 225.651 51.433,225.651 47.233,225.625 44.637 C 225.599 42.041,225.578 44.117,225.578 49.250 M293.542 46.013 C 293.702 46.107,293.839 46.311,293.846 46.467 C 293.855 46.649,293.890 46.674,293.946 46.536 C 294.045 46.288,293.713 45.831,293.438 45.838 C 293.335 45.841,293.381 45.920,293.542 46.013 M173.572 54.000 C 173.572 56.337,173.596 57.294,173.625 56.125 C 173.653 54.956,173.653 53.044,173.625 51.875 C 173.596 50.706,173.572 51.663,173.572 54.000 M260.846 50.047 C 260.839 50.210,260.665 50.412,260.458 50.495 C 260.205 50.597,260.171 50.649,260.355 50.656 C 260.697 50.669,261.059 50.246,260.946 49.964 C 260.892 49.832,260.855 49.863,260.846 50.047 M5.568 50.371 C 5.592 50.488,5.745 50.609,5.909 50.641 C 6.094 50.677,6.163 50.629,6.092 50.513 C 6.029 50.411,5.914 50.367,5.836 50.415 C 5.759 50.463,5.657 50.425,5.610 50.330 C 5.563 50.236,5.544 50.254,5.568 50.371 M107.672 52.605 C 107.664 52.880,108.121 53.212,108.369 53.112 C 108.507 53.057,108.482 53.022,108.300 53.013 C 108.144 53.006,107.940 52.869,107.847 52.708 C 107.753 52.548,107.675 52.501,107.672 52.605 M12.169 56.837 C 12.266 57.018,12.436 57.161,12.548 57.154 C 12.699 57.144,12.697 57.119,12.541 57.056 C 12.425 57.010,12.369 56.911,12.415 56.837 C 12.461 56.762,12.384 56.658,12.245 56.605 C 12.039 56.525,12.025 56.569,12.169 56.837 M214.531 56.703 C 214.286 56.948,214.276 57.167,214.510 57.167 C 214.607 57.167,214.644 57.098,214.592 57.014 C 214.540 56.930,214.592 56.828,214.707 56.787 C 214.822 56.746,214.874 56.666,214.822 56.609 C 214.770 56.552,214.639 56.594,214.531 56.703 M15.346 58.271 C 15.329 58.514,15.808 58.914,15.948 58.774 C 16.007 58.715,15.964 58.667,15.851 58.667 C 15.739 58.667,15.701 58.580,15.766 58.474 C 15.836 58.361,15.812 58.327,15.707 58.392 C 15.609 58.453,15.490 58.408,15.444 58.293 C 15.391 58.162,15.355 58.154,15.346 58.271 " stroke="none" fill="#e4e4e4" fill-rule="evenodd">
</path>
<path id="path1" d="M19.189 1.293 C 18.972 1.331,18.757 1.505,18.711 1.681 C 18.644 1.938,18.463 2.005,17.772 2.025 C 17.302 2.039,16.842 2.068,16.750 2.089 C 16.658 2.111,16.490 2.137,16.375 2.147 C 16.260 2.158,16.167 2.317,16.167 2.500 C 16.167 2.832,16.070 2.861,14.875 2.889 C 14.669 2.894,14.500 2.959,14.500 3.032 C 14.500 3.106,14.415 3.167,14.310 3.167 C 14.206 3.167,14.037 3.279,13.935 3.416 C 13.833 3.554,13.544 3.682,13.292 3.703 C 12.936 3.731,12.833 3.825,12.833 4.120 C 12.833 4.417,12.734 4.506,12.375 4.525 C 12.123 4.539,11.842 4.568,11.750 4.589 C 11.658 4.611,11.490 4.637,11.375 4.647 C 11.260 4.658,11.176 4.723,11.186 4.792 C 11.242 5.147,11.128 5.307,10.750 5.402 C 10.487 5.468,10.333 5.624,10.333 5.825 C 10.333 6.028,10.198 6.163,9.958 6.197 C 9.721 6.230,9.564 6.384,9.531 6.615 C 9.499 6.842,9.342 6.999,9.115 7.031 C 8.888 7.064,8.730 7.221,8.698 7.448 C 8.666 7.675,8.509 7.832,8.281 7.865 C 8.051 7.898,7.897 8.054,7.863 8.292 C 7.825 8.563,7.698 8.667,7.405 8.667 C 7.063 8.667,7.000 8.747,7.000 9.184 C 7.000 9.545,6.933 9.677,6.780 9.618 C 6.659 9.571,6.466 9.684,6.351 9.867 C 6.180 10.141,6.182 10.179,6.363 10.076 C 6.540 9.976,6.543 9.995,6.375 10.176 C 6.260 10.299,6.167 10.572,6.167 10.783 C 6.167 11.083,6.074 11.167,5.740 11.167 C 5.506 11.167,5.356 11.235,5.408 11.319 C 5.543 11.537,5.197 12.372,5.018 12.261 C 4.848 12.156,4.645 12.551,4.553 13.167 C 4.453 13.825,4.349 14.029,4.168 13.917 C 4.076 13.860,3.991 13.893,3.979 13.990 C 3.953 14.209,3.888 14.473,3.833 14.583 C 3.746 14.759,3.708 15.020,3.688 15.583 C 3.671 16.049,3.599 16.167,3.333 16.167 C 3.150 16.167,2.993 16.223,2.984 16.292 C 2.951 16.554,2.878 17.606,2.856 18.125 C 2.841 18.475,2.748 18.667,2.593 18.667 C 2.135 18.667,2.039 19.185,2.009 21.833 C 1.999 22.705,1.946 23.008,1.833 22.833 C 1.716 22.652,1.671 22.643,1.669 22.802 C 1.668 22.921,1.604 22.981,1.528 22.934 C 1.338 22.816,1.345 22.548,1.320 30.626 C 1.299 37.711,1.304 37.840,1.641 38.126 C 1.943 38.382,1.994 38.658,2.061 40.417 C 2.151 42.756,2.107 42.512,2.415 42.394 C 2.724 42.276,2.797 42.487,2.881 43.753 C 2.946 44.744,3.178 45.418,3.490 45.527 C 3.578 45.558,3.673 45.921,3.701 46.333 C 3.741 46.924,3.831 47.118,4.126 47.248 C 4.472 47.400,4.578 47.748,4.545 48.626 C 4.540 48.742,4.716 48.881,4.935 48.936 C 5.227 49.009,5.335 49.153,5.339 49.476 C 5.344 49.936,5.770 50.645,5.954 50.500 C 6.087 50.395,6.332 51.279,6.205 51.406 C 6.153 51.458,6.306 51.500,6.544 51.500 C 6.866 51.500,6.990 51.596,7.030 51.875 C 7.064 52.116,7.217 52.269,7.458 52.303 C 7.722 52.341,7.833 52.469,7.833 52.738 C 7.833 53.250,9.416 54.833,9.929 54.833 C 10.197 54.833,10.326 54.944,10.363 55.208 C 10.398 55.449,10.551 55.602,10.792 55.637 C 11.119 55.683,11.255 55.938,11.186 56.375 C 11.176 56.444,11.348 56.500,11.570 56.500 C 12.252 56.500,12.538 56.669,12.314 56.940 C 12.159 57.127,12.172 57.154,12.376 57.076 C 12.517 57.022,12.682 57.057,12.743 57.155 C 12.803 57.253,13.018 57.333,13.220 57.333 C 13.441 57.333,13.653 57.483,13.752 57.708 C 13.843 57.915,14.029 58.091,14.167 58.100 C 14.304 58.109,14.664 58.127,14.966 58.141 C 15.377 58.160,15.502 58.236,15.466 58.441 C 15.414 58.730,15.566 58.778,17.051 58.944 C 17.576 59.003,18.001 59.172,18.285 59.435 L 18.718 59.836 25.901 59.793 L 33.083 59.750 33.248 59.375 C 33.396 59.036,34.648 58.832,35.695 58.976 C 35.757 58.984,35.982 58.807,36.195 58.582 C 36.458 58.304,36.771 58.170,37.167 58.164 C 37.819 58.155,38.316 57.858,38.209 57.542 C 38.164 57.409,38.302 57.333,38.587 57.333 C 38.834 57.333,39.258 57.146,39.530 56.917 C 39.803 56.687,40.207 56.500,40.429 56.500 C 40.749 56.500,40.833 56.413,40.833 56.083 C 40.833 55.777,40.922 55.667,41.168 55.667 C 41.352 55.667,41.741 55.439,42.032 55.161 C 42.324 54.882,42.656 54.691,42.771 54.735 C 42.888 54.780,43.076 54.598,43.198 54.322 C 43.318 54.051,43.503 53.863,43.609 53.904 C 43.715 53.944,43.895 53.754,44.008 53.480 C 44.128 53.192,44.304 53.017,44.428 53.064 C 44.569 53.119,44.712 52.868,44.852 52.323 C 45.006 51.721,45.143 51.500,45.362 51.500 C 45.538 51.500,45.701 51.336,45.761 51.099 C 45.816 50.879,46.005 50.661,46.181 50.615 C 46.372 50.565,46.508 50.375,46.519 50.141 C 46.530 49.926,46.556 49.675,46.577 49.583 C 46.598 49.492,46.627 49.323,46.641 49.208 C 46.655 49.094,46.817 49.000,47.000 49.000 C 47.197 49.000,47.343 48.881,47.358 48.708 C 47.372 48.548,47.398 48.304,47.417 48.167 C 47.435 48.029,47.462 47.785,47.475 47.625 C 47.490 47.453,47.636 47.333,47.833 47.333 C 48.139 47.333,48.167 47.222,48.167 45.990 C 48.167 45.216,48.232 44.687,48.320 44.742 C 48.831 45.058,49.000 44.313,49.000 41.738 L 49.000 39.167 42.417 39.167 L 35.833 39.167 35.833 40.074 C 35.833 40.891,35.800 40.975,35.500 40.917 C 35.317 40.881,35.161 40.942,35.154 41.051 C 35.016 43.220,34.984 43.376,34.585 43.900 C 34.356 44.200,34.218 44.496,34.279 44.557 C 34.340 44.617,34.161 44.986,33.881 45.375 C 33.380 46.072,33.333 46.169,33.333 46.500 C 33.333 46.592,33.183 46.667,33.000 46.667 C 32.756 46.667,32.667 46.778,32.667 47.083 C 32.667 47.472,32.611 47.500,31.833 47.500 C 31.375 47.500,31.009 47.556,31.020 47.625 C 31.100 48.132,30.970 48.278,30.465 48.248 C 29.676 48.201,29.333 48.334,29.333 48.686 C 29.333 49.026,28.721 49.067,24.514 49.010 C 22.736 48.985,22.422 48.927,22.591 48.654 C 22.707 48.467,22.445 48.355,21.689 48.270 C 21.136 48.207,20.774 47.897,20.940 47.629 C 20.987 47.553,20.963 47.502,20.887 47.516 C 20.017 47.667,19.333 47.477,19.333 47.083 C 19.333 46.750,19.250 46.667,18.917 46.667 C 18.581 46.667,18.500 46.584,18.500 46.242 C 18.500 46.009,18.318 45.636,18.096 45.414 C 17.873 45.191,17.667 44.838,17.637 44.630 C 17.602 44.384,17.451 44.231,17.208 44.197 C 16.877 44.150,16.833 44.047,16.833 43.314 C 16.833 42.664,16.748 42.400,16.439 42.090 C 16.106 41.757,16.032 41.483,15.965 40.323 C 15.901 39.224,15.822 38.904,15.568 38.718 C 15.263 38.495,15.250 38.165,15.250 30.645 L 15.250 22.804 15.618 22.506 C 15.940 22.245,15.993 22.021,16.035 20.729 C 16.076 19.475,16.126 19.250,16.363 19.248 C 16.517 19.247,16.705 19.178,16.780 19.096 C 16.858 19.011,16.827 18.998,16.708 19.066 C 16.463 19.208,16.422 18.901,16.667 18.750 C 16.758 18.693,16.833 18.430,16.833 18.164 C 16.833 17.872,16.997 17.518,17.250 17.265 C 17.515 17.000,17.667 16.661,17.667 16.331 C 17.667 16.046,17.726 15.851,17.800 15.896 C 17.998 16.018,18.350 15.754,18.395 15.450 C 18.416 15.303,18.636 15.024,18.884 14.830 C 19.131 14.635,19.333 14.360,19.333 14.217 C 19.333 13.996,19.373 13.992,19.615 14.188 C 19.788 14.328,19.850 14.338,19.777 14.216 C 19.638 13.985,20.338 13.461,20.685 13.535 C 20.809 13.562,20.934 13.416,20.966 13.208 C 21.009 12.924,21.141 12.828,21.512 12.813 C 22.078 12.788,22.107 12.782,22.692 12.538 C 22.935 12.437,23.183 12.274,23.244 12.177 C 23.389 11.942,28.607 11.935,28.752 12.169 C 28.913 12.431,29.986 12.833,30.520 12.833 C 30.840 12.833,31.000 12.918,31.000 13.089 C 31.000 13.358,31.293 13.522,31.890 13.586 C 32.088 13.607,32.339 13.634,32.447 13.645 C 32.555 13.657,32.667 13.835,32.697 14.042 C 32.732 14.288,32.865 14.417,33.083 14.417 C 33.302 14.417,33.423 14.534,33.434 14.757 C 33.455 15.167,33.792 15.833,33.979 15.833 C 34.053 15.833,34.209 16.150,34.324 16.536 C 34.440 16.923,34.647 17.321,34.784 17.421 C 34.950 17.542,35.052 17.966,35.086 18.677 C 35.116 19.267,35.145 19.844,35.153 19.958 C 35.160 20.073,35.223 20.158,35.292 20.147 C 35.715 20.080,35.834 20.220,35.836 20.792 C 35.840 21.875,35.563 21.825,41.842 21.873 C 47.179 21.914,47.582 21.937,47.560 22.207 C 47.548 22.366,47.604 22.455,47.685 22.405 C 47.767 22.355,47.834 22.412,47.836 22.532 C 47.838 22.708,47.865 22.707,47.980 22.527 C 48.057 22.405,48.179 22.305,48.250 22.305 C 48.321 22.305,48.443 22.405,48.520 22.527 C 48.635 22.707,48.662 22.708,48.664 22.532 C 48.666 22.412,48.732 22.354,48.811 22.403 C 48.891 22.452,48.970 21.297,48.987 19.835 L 49.019 17.178 48.593 17.071 C 48.184 16.968,48.167 16.913,48.167 15.745 C 48.167 14.675,48.114 14.463,47.733 14.010 C 47.495 13.727,47.339 13.391,47.388 13.264 C 47.437 13.137,47.430 12.986,47.373 12.928 C 47.315 12.871,47.251 12.706,47.230 12.561 C 47.208 12.417,47.045 12.196,46.866 12.071 C 46.684 11.943,46.542 11.651,46.542 11.403 C 46.542 11.160,46.448 10.904,46.333 10.833 C 46.218 10.762,46.175 10.621,46.237 10.521 C 46.309 10.405,46.255 10.374,46.092 10.436 C 45.846 10.531,45.809 10.463,45.766 9.841 C 45.757 9.707,45.562 9.554,45.333 9.500 C 45.104 9.446,44.907 9.311,44.896 9.201 C 44.884 9.090,44.866 8.918,44.854 8.819 C 44.815 8.481,42.316 6.167,41.990 6.167 C 41.705 6.167,41.577 5.902,41.647 5.458 C 41.658 5.390,41.491 5.333,41.277 5.333 C 41.022 5.333,40.821 5.188,40.697 4.916 C 40.592 4.686,40.449 4.514,40.378 4.534 C 40.107 4.612,39.494 4.145,39.611 3.950 C 39.694 3.811,39.650 3.815,39.468 3.963 C 39.252 4.138,39.188 4.130,39.108 3.921 C 39.054 3.781,38.813 3.667,38.571 3.667 C 38.261 3.667,38.158 3.597,38.221 3.432 C 38.308 3.204,38.043 3.085,37.021 2.894 C 36.804 2.853,36.392 2.651,36.105 2.445 C 35.818 2.239,35.490 2.066,35.375 2.060 C 35.260 2.055,34.763 2.039,34.269 2.025 C 33.548 2.005,33.356 1.939,33.291 1.690 C 33.245 1.512,33.006 1.341,32.730 1.288 C 32.187 1.184,19.797 1.188,19.189 1.293 M55.744 2.208 C 55.700 2.323,55.684 15.129,55.707 30.667 L 55.750 58.917 62.250 58.917 L 68.750 58.917 68.792 30.458 L 68.834 2.000 62.329 2.000 C 57.277 2.000,55.805 2.047,55.744 2.208 M78.116 2.106 C 78.052 2.170,78.000 14.997,78.000 30.611 L 78.000 59.000 84.583 59.000 L 91.167 59.000 91.167 42.399 C 91.167 27.329,91.191 25.807,91.430 25.899 C 91.575 25.954,91.763 26.000,91.847 26.000 C 91.931 26.000,92.000 26.229,92.000 26.508 C 92.000 26.836,92.148 27.153,92.417 27.402 C 92.646 27.614,92.833 27.911,92.833 28.061 C 92.833 28.211,92.908 28.343,93.000 28.354 C 93.092 28.366,93.260 28.384,93.375 28.396 C 93.490 28.407,93.604 28.604,93.630 28.833 C 93.734 29.764,93.843 30.000,94.170 30.000 C 94.424 30.000,94.500 30.113,94.500 30.488 C 94.500 30.810,94.642 31.087,94.917 31.304 C 95.171 31.503,95.333 31.801,95.333 32.066 C 95.333 32.418,95.412 32.500,95.750 32.500 C 96.142 32.500,96.327 33.153,96.186 34.042 C 96.176 34.110,96.223 34.158,96.292 34.147 C 96.800 34.067,97.033 34.191,96.952 34.499 C 96.895 34.717,97.025 35.003,97.327 35.327 C 97.581 35.599,97.756 35.855,97.715 35.897 C 97.582 36.029,98.004 36.667,98.224 36.667 C 98.341 36.667,98.535 37.050,98.655 37.519 C 98.787 38.034,98.923 38.291,98.999 38.168 C 99.145 37.932,99.243 38.067,99.397 38.708 C 99.471 39.017,99.614 39.167,99.837 39.167 C 100.162 39.167,100.199 39.274,100.223 40.292 C 100.231 40.634,100.365 40.742,100.712 40.685 C 100.872 40.659,101.197 41.483,101.093 41.651 C 101.003 41.797,101.595 42.337,101.736 42.236 C 101.789 42.198,101.799 42.214,101.757 42.271 C 101.620 42.457,102.168 43.333,102.421 43.333 C 102.556 43.333,102.676 43.483,102.688 43.667 C 102.699 43.850,102.727 44.075,102.750 44.167 C 102.773 44.258,102.801 44.441,102.813 44.572 C 102.824 44.703,102.983 44.858,103.167 44.917 C 103.350 44.975,103.500 45.156,103.500 45.320 C 103.500 45.484,103.678 45.810,103.895 46.044 C 104.112 46.278,104.338 46.664,104.398 46.902 C 104.469 47.184,104.620 47.333,104.837 47.333 C 105.094 47.333,105.167 47.446,105.167 47.844 C 105.167 48.478,105.433 49.000,105.756 49.000 C 105.906 49.000,106.000 49.163,106.000 49.424 C 106.000 49.658,106.188 50.036,106.417 50.265 C 106.646 50.494,106.833 50.827,106.833 51.004 C 106.833 51.209,106.985 51.365,107.250 51.432 C 107.576 51.513,107.672 51.651,107.692 52.060 C 107.706 52.348,107.726 52.696,107.736 52.833 C 107.747 52.993,107.889 53.064,108.127 53.031 C 108.443 52.987,108.500 53.057,108.500 53.490 C 108.500 53.923,108.563 54.000,108.917 54.000 C 109.306 54.000,109.333 54.056,109.333 54.833 C 109.333 55.292,109.390 55.658,109.458 55.647 C 109.977 55.565,110.167 55.700,110.167 56.148 C 110.167 56.413,110.322 56.807,110.513 57.023 C 110.703 57.240,110.804 57.311,110.737 57.183 C 110.657 57.029,110.681 56.989,110.808 57.067 C 110.913 57.133,111.000 57.407,111.000 57.677 C 111.000 57.946,111.056 58.158,111.125 58.147 C 111.619 58.069,111.833 58.202,111.833 58.587 L 111.833 59.007 118.735 58.996 C 124.744 58.987,125.649 58.953,125.733 58.733 C 125.956 58.153,125.838 2.378,125.614 2.192 C 125.229 1.873,112.056 1.947,111.932 2.269 C 111.878 2.411,111.825 10.040,111.814 19.222 C 111.803 28.404,111.763 35.767,111.724 35.583 C 111.685 35.400,111.619 35.086,111.576 34.886 C 111.534 34.686,111.344 34.473,111.154 34.413 C 110.951 34.348,110.845 34.209,110.898 34.073 C 111.001 33.802,110.543 33.287,110.320 33.425 C 110.236 33.477,110.157 33.403,110.146 33.260 C 110.066 32.267,109.890 31.833,109.566 31.833 C 109.363 31.833,109.251 31.519,109.314 31.125 C 109.324 31.056,109.258 31.000,109.167 31.000 C 109.075 31.000,109.000 30.896,109.000 30.768 C 109.000 30.640,108.893 30.495,108.763 30.445 C 108.633 30.395,108.501 30.180,108.471 29.969 C 108.441 29.757,108.248 29.509,108.042 29.419 C 107.835 29.328,107.654 29.103,107.638 28.919 C 107.622 28.734,107.593 28.471,107.573 28.333 C 107.552 28.196,107.527 27.990,107.518 27.875 C 107.508 27.760,107.444 27.676,107.375 27.686 C 107.022 27.742,106.833 27.639,106.833 27.391 C 106.833 27.239,106.658 26.883,106.443 26.599 C 106.228 26.315,106.002 25.877,105.940 25.625 C 105.864 25.317,105.719 25.167,105.497 25.167 C 105.258 25.167,105.167 25.054,105.167 24.760 C 105.167 24.536,105.084 24.302,104.982 24.239 C 104.863 24.166,104.857 24.088,104.964 24.021 C 105.066 23.956,105.041 23.835,104.898 23.702 C 104.749 23.564,104.667 23.552,104.667 23.670 C 104.667 23.771,104.592 23.807,104.500 23.750 C 104.408 23.693,104.333 23.426,104.333 23.157 C 104.333 22.745,104.267 22.667,103.917 22.667 C 103.547 22.667,103.500 22.597,103.497 22.042 C 103.495 21.431,103.319 20.957,103.106 20.986 C 102.757 21.032,102.667 20.963,102.667 20.651 C 102.667 20.305,102.020 19.320,101.978 19.603 C 101.966 19.684,101.910 19.487,101.853 19.167 C 101.796 18.846,101.656 18.574,101.542 18.563 C 101.427 18.551,101.263 18.532,101.176 18.521 C 101.090 18.509,100.996 18.181,100.968 17.792 C 100.925 17.203,100.853 17.074,100.542 17.030 C 100.268 16.991,100.167 16.865,100.167 16.564 C 100.167 16.337,99.979 15.964,99.750 15.735 C 99.521 15.506,99.333 15.134,99.333 14.909 C 99.333 14.584,99.248 14.500,98.917 14.500 C 98.494 14.500,98.453 14.378,98.455 13.132 C 98.455 12.976,98.409 12.854,98.353 12.861 C 97.859 12.920,97.667 12.793,97.667 12.409 C 97.667 12.176,97.485 11.803,97.262 11.580 C 97.040 11.358,96.833 11.005,96.804 10.796 C 96.769 10.551,96.618 10.398,96.375 10.363 C 96.079 10.321,95.998 10.199,95.988 9.780 C 95.977 9.247,95.700 8.384,95.678 8.812 C 95.669 8.997,95.619 9.001,95.414 8.832 C 95.276 8.716,95.172 8.538,95.184 8.436 C 95.237 7.990,95.145 7.833,94.833 7.833 C 94.650 7.833,94.489 7.740,94.475 7.625 C 94.461 7.510,94.432 7.342,94.411 7.250 C 94.389 7.158,94.363 6.873,94.353 6.615 C 94.342 6.358,94.274 6.184,94.200 6.229 C 93.949 6.385,93.597 6.020,93.546 5.552 C 93.518 5.294,93.484 4.996,93.470 4.890 C 93.456 4.784,93.305 4.723,93.134 4.756 C 92.964 4.789,92.868 4.745,92.922 4.658 C 92.976 4.571,92.950 4.500,92.865 4.500 C 92.780 4.500,92.719 4.331,92.730 4.125 C 92.745 3.836,92.664 3.755,92.375 3.770 C 92.082 3.786,91.995 3.694,91.975 3.353 C 91.962 3.113,91.943 2.783,91.934 2.620 C 91.924 2.457,91.807 2.255,91.674 2.172 C 91.392 1.997,78.289 1.933,78.116 2.106 M133.460 2.180 C 133.069 2.406,133.001 58.489,133.391 58.812 C 133.682 59.054,173.267 59.075,173.417 58.834 C 173.599 58.538,173.527 49.195,173.339 48.844 C 172.996 48.202,172.309 48.169,159.542 48.168 L 147.167 48.167 147.167 41.583 L 147.167 35.000 158.247 35.000 L 169.327 35.000 169.419 34.625 C 169.469 34.419,169.489 32.225,169.463 29.750 L 169.417 25.250 158.292 25.207 L 147.167 25.164 147.167 18.999 L 147.167 12.833 159.708 12.819 C 166.606 12.812,172.438 12.774,172.667 12.735 C 172.896 12.695,173.165 12.652,173.264 12.637 C 173.494 12.604,173.481 12.904,173.499 7.276 C 173.510 3.861,173.459 2.402,173.322 2.236 C 173.081 1.946,133.960 1.891,133.460 2.180 M178.002 2.329 C 177.888 2.542,177.846 11.911,177.875 30.782 L 177.917 58.917 184.750 58.917 L 191.583 58.917 191.626 47.198 C 191.669 35.384,191.635 34.587,191.103 35.119 C 191.046 35.176,191.000 34.028,191.000 32.569 C 191.000 31.110,190.975 28.454,190.944 26.667 C 190.913 24.879,190.931 23.829,190.985 24.333 C 191.039 24.837,191.140 25.231,191.208 25.208 C 191.729 25.035,191.820 25.195,191.868 26.375 C 191.914 27.521,191.936 27.581,192.292 27.531 C 192.643 27.482,192.668 27.542,192.688 28.490 C 192.716 29.879,192.723 29.914,192.958 29.938 C 193.073 29.949,193.227 29.968,193.301 29.979 C 193.374 29.991,193.437 30.281,193.439 30.625 C 193.445 31.386,193.640 32.025,193.935 32.249 C 194.057 32.341,194.186 32.792,194.224 33.250 C 194.280 33.946,194.350 34.092,194.646 34.137 C 194.916 34.177,195.005 34.315,195.020 34.720 C 195.031 35.011,195.049 35.512,195.061 35.833 C 195.078 36.266,195.180 36.459,195.458 36.581 C 195.719 36.696,195.839 36.898,195.853 37.248 C 195.864 37.524,195.883 37.938,195.895 38.167 C 195.907 38.396,196.085 38.736,196.292 38.922 C 196.562 39.166,196.667 39.447,196.667 39.930 C 196.667 40.299,196.760 40.701,196.875 40.824 C 197.044 41.007,197.036 41.026,196.833 40.929 C 196.680 40.855,196.697 40.901,196.875 41.048 C 197.035 41.179,197.167 41.366,197.167 41.463 C 197.167 41.560,197.240 41.664,197.329 41.694 C 197.418 41.725,197.517 42.081,197.549 42.486 C 197.593 43.035,197.683 43.233,197.903 43.265 C 198.317 43.326,198.309 43.304,198.350 44.546 C 198.385 45.652,198.462 45.778,199.042 45.686 C 199.144 45.670,199.244 46.918,199.211 47.793 C 199.207 47.908,199.383 48.048,199.602 48.103 C 199.953 48.191,200.000 48.298,200.000 49.008 C 200.000 49.451,200.083 49.865,200.184 49.928 C 200.314 50.008,200.304 50.082,200.151 50.176 C 199.998 50.271,200.066 50.344,200.384 50.423 C 200.803 50.528,200.833 50.598,200.833 51.435 C 200.833 52.278,200.859 52.333,201.242 52.333 C 201.631 52.333,201.654 52.388,201.701 53.458 C 201.744 54.441,201.798 54.604,202.125 54.748 C 202.465 54.897,202.670 56.089,202.520 57.042 C 202.500 57.170,202.754 57.227,203.125 57.179 C 203.299 57.156,203.447 58.235,203.356 58.866 C 203.335 59.011,213.350 59.047,213.725 58.903 C 213.929 58.825,214.000 58.585,214.000 57.972 C 214.000 57.465,214.064 57.187,214.167 57.250 C 214.258 57.307,214.333 57.245,214.333 57.114 C 214.333 56.982,214.442 56.784,214.575 56.674 C 214.714 56.558,214.838 56.106,214.867 55.611 C 214.909 54.878,214.966 54.750,215.250 54.750 C 215.433 54.750,215.590 54.637,215.599 54.500 C 215.608 54.362,215.627 53.837,215.641 53.331 C 215.663 52.551,215.723 52.388,216.042 52.248 C 216.369 52.104,216.423 51.941,216.466 50.958 C 216.512 49.915,216.543 49.833,216.893 49.833 C 217.226 49.833,217.276 49.741,217.311 49.052 C 217.360 48.117,217.447 47.944,217.803 48.081 C 217.952 48.138,218.020 48.131,217.955 48.066 C 217.890 48.001,217.929 47.832,218.043 47.692 C 218.213 47.482,218.208 47.461,218.016 47.577 C 217.841 47.682,217.819 47.659,217.930 47.484 C 218.110 47.200,218.120 47.152,218.146 46.413 C 218.162 45.962,218.262 45.783,218.577 45.639 C 218.803 45.536,218.979 45.332,218.967 45.184 C 218.878 43.998,219.015 43.317,219.369 43.186 C 219.741 43.049,219.758 42.982,219.812 41.476 C 219.829 40.991,219.910 40.850,220.218 40.773 C 220.475 40.708,220.605 40.550,220.611 40.297 C 220.635 39.233,220.680 38.988,220.833 39.083 C 220.925 39.140,221.000 39.069,221.000 38.927 C 221.000 38.784,221.079 38.667,221.177 38.667 C 221.274 38.667,221.307 38.592,221.250 38.500 C 221.193 38.408,221.208 38.333,221.282 38.333 C 221.356 38.332,221.437 37.979,221.462 37.548 C 221.504 36.842,221.737 36.421,221.998 36.582 C 222.107 36.650,222.178 36.136,222.221 34.966 C 222.246 34.304,222.308 34.167,222.625 34.088 C 222.831 34.036,223.007 33.864,223.016 33.705 C 223.039 33.262,223.134 31.932,223.151 31.792 C 223.160 31.723,223.317 31.667,223.500 31.667 C 223.793 31.667,223.833 31.556,223.833 30.750 C 223.833 30.246,223.890 29.842,223.958 29.853 C 224.291 29.906,224.509 29.817,224.417 29.667 C 224.360 29.575,224.393 29.500,224.490 29.500 C 224.587 29.500,224.658 29.444,224.647 29.375 C 224.556 28.796,224.696 27.499,224.841 27.588 C 225.244 27.837,225.500 27.292,225.500 26.183 C 225.500 25.119,225.517 25.071,225.917 25.038 L 226.333 25.004 226.333 29.502 C 226.333 33.778,226.317 34.016,226.000 34.333 C 225.603 34.730,225.626 33.780,225.661 48.246 C 225.680 56.164,225.735 58.774,225.885 58.871 C 225.994 58.942,229.057 58.996,232.692 58.990 L 239.300 58.979 239.398 58.614 C 239.691 57.522,239.500 2.551,239.202 2.282 C 238.880 1.991,222.719 1.837,222.434 2.122 C 222.313 2.243,222.252 2.262,221.823 2.313 C 221.726 2.324,221.690 2.403,221.743 2.488 C 221.796 2.574,221.763 2.691,221.669 2.748 C 221.576 2.806,221.500 3.264,221.500 3.767 C 221.500 4.402,221.436 4.673,221.292 4.654 C 220.920 4.606,220.666 4.664,220.686 4.792 C 220.806 5.550,220.633 7.000,220.423 7.000 C 220.043 7.000,219.833 7.559,219.833 8.572 C 219.833 9.451,219.811 9.500,219.417 9.500 C 219.023 9.500,219.000 9.550,219.000 10.417 C 219.000 10.921,218.928 11.333,218.839 11.333 C 218.566 11.333,218.267 12.044,218.173 12.917 C 218.107 13.531,218.015 13.745,217.825 13.732 C 217.678 13.722,217.551 13.866,217.530 14.066 C 217.347 15.807,217.278 16.167,217.127 16.167 C 216.775 16.167,216.510 16.772,216.505 17.588 C 216.501 18.346,216.055 19.166,215.791 18.903 C 215.753 18.864,215.705 19.297,215.684 19.865 C 215.642 21.041,215.583 21.194,215.200 21.129 C 214.892 21.078,214.883 21.111,214.854 22.460 C 214.836 23.286,214.781 23.444,214.458 23.585 C 214.168 23.713,214.065 23.926,214.000 24.531 C 213.953 24.970,213.771 25.481,213.583 25.697 C 213.368 25.947,213.233 26.379,213.201 26.917 C 213.170 27.440,213.046 27.845,212.867 28.006 C 212.711 28.147,212.557 28.372,212.524 28.506 C 212.389 29.062,212.358 29.272,212.346 29.708 C 212.338 29.990,212.241 30.167,212.093 30.167 C 211.734 30.167,211.624 30.446,211.539 31.567 C 211.469 32.496,211.361 32.730,210.935 32.880 C 210.798 32.928,210.723 33.481,210.682 34.726 C 210.671 35.083,210.602 35.178,210.410 35.104 C 210.080 34.977,209.899 35.650,209.844 37.208 C 209.838 37.369,209.718 37.500,209.578 37.500 C 209.314 37.500,208.978 38.147,209.119 38.384 C 209.324 38.732,208.982 39.333,208.580 39.333 C 208.192 39.333,207.998 38.567,208.147 37.625 C 208.158 37.556,208.110 37.509,208.042 37.520 C 207.420 37.618,207.348 37.499,207.299 36.292 C 207.256 35.232,207.211 35.083,206.933 35.083 C 206.659 35.083,206.609 34.940,206.573 34.051 C 206.527 32.920,206.436 32.667,206.073 32.667 C 205.847 32.667,205.798 32.442,205.790 31.375 C 205.789 31.169,205.718 31.000,205.634 31.000 C 205.549 31.000,205.524 30.929,205.577 30.843 C 205.630 30.757,205.520 30.543,205.331 30.367 C 205.115 30.166,204.969 29.788,204.936 29.349 C 204.907 28.965,204.726 28.437,204.534 28.177 C 204.320 27.888,204.168 27.403,204.144 26.930 C 204.110 26.278,204.044 26.142,203.719 26.061 C 203.322 25.961,203.325 25.976,203.277 24.052 C 203.271 23.814,203.134 23.653,202.884 23.590 C 202.489 23.491,202.490 23.496,202.444 21.542 C 202.436 21.179,202.315 21.097,201.875 21.154 C 201.733 21.173,201.659 20.889,201.642 20.257 C 201.628 19.749,201.609 19.240,201.600 19.125 C 201.591 19.010,201.415 18.821,201.208 18.703 C 200.908 18.532,200.833 18.342,200.833 17.755 C 200.833 17.350,200.750 16.968,200.649 16.906 C 200.520 16.826,200.533 16.748,200.691 16.648 C 200.871 16.534,200.872 16.505,200.698 16.503 C 200.579 16.501,200.521 16.433,200.572 16.352 C 200.622 16.271,200.533 16.215,200.373 16.227 C 200.156 16.244,200.072 16.103,200.038 15.667 C 199.965 14.722,199.844 14.344,199.504 14.004 C 199.287 13.787,199.172 13.412,199.146 12.842 C 199.111 12.088,199.067 12.000,198.728 12.000 C 198.376 12.000,198.345 11.920,198.299 10.875 C 198.256 9.893,198.202 9.729,197.875 9.585 C 197.567 9.450,197.496 9.280,197.479 8.627 C 197.468 8.191,197.440 7.758,197.417 7.667 C 197.394 7.575,197.366 7.396,197.354 7.269 C 197.343 7.141,197.202 7.047,197.042 7.060 C 196.806 7.079,196.740 6.924,196.698 6.254 C 196.669 5.798,196.566 5.329,196.469 5.213 C 196.341 5.058,196.355 4.999,196.521 4.998 C 196.647 4.996,196.563 4.901,196.333 4.785 C 195.981 4.608,195.909 4.440,195.866 3.706 C 195.822 2.946,195.747 2.784,195.264 2.416 L 194.711 1.994 186.442 2.003 C 178.486 2.011,178.166 2.024,178.002 2.329 M264.167 2.288 C 263.720 2.796,263.516 3.328,263.477 4.079 C 263.456 4.484,263.377 4.777,263.303 4.731 C 263.228 4.685,263.167 4.726,263.167 4.823 C 263.167 4.921,263.054 5.000,262.917 5.000 C 262.779 5.000,262.667 5.079,262.667 5.177 C 262.667 5.274,262.760 5.300,262.875 5.235 C 263.042 5.141,263.042 5.163,262.875 5.342 C 262.760 5.466,262.667 5.888,262.667 6.280 C 262.667 6.887,262.609 7.008,262.281 7.091 C 261.957 7.172,261.888 7.308,261.856 7.931 C 261.832 8.395,261.664 8.902,261.409 9.277 C 261.131 9.686,261.000 10.111,261.000 10.597 C 261.000 11.149,260.915 11.374,260.630 11.574 C 260.426 11.717,260.323 11.833,260.400 11.833 C 260.477 11.833,260.438 11.957,260.312 12.109 C 260.186 12.261,260.102 12.411,260.125 12.442 C 260.358 12.765,260.120 13.672,259.780 13.757 C 259.566 13.811,259.393 13.981,259.393 14.136 C 259.393 15.825,259.330 16.144,258.980 16.197 C 258.693 16.240,258.614 16.390,258.561 16.990 C 258.520 17.448,258.369 17.848,258.164 18.038 C 257.982 18.208,257.826 18.475,257.817 18.631 C 257.808 18.788,257.784 19.067,257.764 19.250 C 257.744 19.433,257.714 19.760,257.697 19.976 C 257.676 20.244,257.590 20.340,257.425 20.276 C 257.127 20.162,256.983 20.575,256.928 21.708 C 256.894 22.404,256.822 22.580,256.526 22.690 C 256.224 22.801,256.167 22.955,256.167 23.651 C 256.167 24.449,255.953 24.894,255.777 24.459 C 255.712 24.297,255.690 24.299,255.680 24.468 C 255.673 24.588,255.608 24.650,255.537 24.606 C 255.466 24.562,255.385 25.026,255.358 25.637 C 255.301 26.896,255.323 26.842,254.852 26.878 C 254.529 26.902,254.500 27.002,254.500 28.107 C 254.500 29.228,254.474 29.314,254.125 29.363 C 253.810 29.408,253.742 29.535,253.697 30.163 C 253.644 30.903,253.438 31.333,253.136 31.333 C 253.051 31.333,253.034 31.247,253.099 31.141 C 253.165 31.035,253.149 30.991,253.064 31.044 C 252.980 31.096,252.887 31.651,252.859 32.276 C 252.802 33.554,252.818 33.509,252.390 33.542 C 252.122 33.562,252.069 33.726,252.027 34.654 C 251.973 35.867,251.983 35.841,251.557 35.903 C 251.312 35.938,251.240 36.121,251.199 36.811 C 251.171 37.301,251.081 37.633,250.991 37.578 C 250.904 37.524,250.833 37.560,250.833 37.657 C 250.833 37.754,250.702 37.839,250.542 37.846 C 250.356 37.855,250.328 37.891,250.465 37.946 C 250.610 38.004,250.627 38.097,250.518 38.229 C 250.428 38.337,250.331 38.798,250.302 39.254 C 250.258 39.955,250.198 40.083,249.917 40.084 C 249.549 40.084,249.550 40.079,249.521 41.500 C 249.501 42.432,249.473 42.500,249.110 42.500 C 248.756 42.500,248.717 42.579,248.690 43.337 C 248.669 43.915,248.560 44.273,248.334 44.499 C 247.989 44.844,247.868 45.219,247.795 46.167 C 247.770 46.487,247.656 46.759,247.542 46.771 C 247.082 46.817,247.037 46.841,247.045 47.042 C 247.103 48.620,246.992 49.167,246.613 49.167 C 246.263 49.167,246.222 49.249,246.186 50.038 C 246.165 50.517,246.071 50.956,245.979 51.013 C 245.651 51.216,245.333 52.048,245.333 52.704 C 245.333 53.169,245.270 53.345,245.124 53.289 C 244.866 53.190,244.588 53.484,244.569 53.875 C 244.562 54.035,244.543 54.495,244.528 54.897 C 244.506 55.468,244.429 55.646,244.175 55.713 C 243.927 55.778,243.823 56.000,243.737 56.646 C 243.675 57.113,243.521 57.580,243.396 57.684 C 243.068 57.956,243.113 58.380,243.504 58.715 C 243.814 58.980,244.397 59.000,250.712 58.960 L 257.583 58.917 257.638 58.500 C 257.668 58.271,257.840 57.968,258.021 57.826 C 258.257 57.642,258.377 57.289,258.446 56.576 C 258.514 55.860,258.634 55.509,258.876 55.316 C 259.114 55.126,259.232 54.789,259.285 54.149 C 259.385 52.929,259.469 52.681,259.673 53.005 C 259.788 53.186,259.829 53.193,259.831 53.032 C 259.832 52.912,259.895 52.852,259.971 52.899 C 260.046 52.945,260.108 52.856,260.108 52.700 C 260.105 50.762,260.161 50.478,260.537 50.531 C 260.935 50.587,260.919 50.640,260.971 49.042 L 261.000 48.167 270.500 48.167 L 280.000 48.167 280.026 48.708 C 280.041 49.006,280.049 49.344,280.045 49.460 C 280.040 49.575,280.216 49.714,280.435 49.769 C 280.822 49.867,280.935 50.423,280.878 51.958 C 280.871 52.142,281.171 52.245,281.542 52.186 C 281.610 52.176,281.667 52.575,281.667 53.073 C 281.667 53.572,281.750 54.032,281.851 54.094 C 281.970 54.168,281.976 54.245,281.870 54.313 C 281.767 54.377,281.792 54.499,281.935 54.632 C 282.084 54.770,282.167 54.781,282.167 54.663 C 282.167 54.563,282.242 54.527,282.333 54.583 C 282.425 54.640,282.500 54.971,282.500 55.318 C 282.500 56.113,282.783 56.945,283.095 57.065 C 283.257 57.127,283.333 57.419,283.333 57.977 C 283.333 58.572,283.406 58.826,283.597 58.899 C 284.022 59.062,297.559 59.010,297.822 58.844 C 298.326 58.525,298.201 57.333,297.663 57.333 C 297.376 57.333,297.330 57.211,297.308 56.375 C 297.270 54.944,297.272 54.952,296.942 54.903 C 296.520 54.841,296.527 54.857,296.469 53.789 C 296.435 53.165,296.345 52.834,296.208 52.834 C 296.094 52.834,296.000 52.754,296.000 52.657 C 296.000 52.560,295.939 52.518,295.865 52.564 C 295.791 52.609,295.714 52.333,295.693 51.948 C 295.647 51.100,295.518 50.636,295.355 50.737 C 295.043 50.930,294.850 50.481,294.805 49.455 C 294.759 48.435,294.722 48.333,294.397 48.333 C 294.081 48.333,294.028 48.213,293.937 47.292 C 293.880 46.719,293.821 46.167,293.806 46.065 C 293.790 45.963,293.659 45.888,293.514 45.898 C 293.321 45.912,293.228 45.716,293.167 45.167 C 293.103 44.594,292.995 44.378,292.708 44.252 C 292.383 44.109,292.333 43.963,292.333 43.139 C 292.333 42.230,292.074 41.667,291.655 41.667 C 291.570 41.667,291.500 41.385,291.499 41.042 C 291.498 40.312,291.154 38.986,291.046 39.293 C 290.881 39.759,290.667 39.258,290.667 38.407 C 290.667 37.908,290.610 37.509,290.542 37.520 C 289.927 37.617,289.833 37.492,289.833 36.572 C 289.833 35.531,289.595 34.928,289.237 35.065 C 289.048 35.138,289.000 34.953,289.000 34.161 C 289.000 33.572,288.928 33.167,288.823 33.167 C 288.726 33.167,288.693 33.092,288.750 33.000 C 288.843 32.850,288.624 32.761,288.292 32.814 C 288.223 32.824,288.167 32.426,288.167 31.928 C 288.167 31.127,288.125 31.017,287.804 30.970 C 287.487 30.923,287.435 30.794,287.384 29.917 C 287.303 28.514,287.314 28.546,286.940 28.566 C 286.641 28.581,286.596 28.469,286.557 27.597 C 286.532 27.054,286.424 26.556,286.318 26.490 C 286.211 26.424,286.175 26.288,286.237 26.187 C 286.309 26.072,286.255 26.041,286.092 26.103 C 285.824 26.206,285.818 26.187,285.770 25.167 C 285.749 24.740,285.643 24.539,285.371 24.419 C 285.072 24.286,284.996 24.109,284.981 23.502 C 284.950 22.291,284.769 21.804,284.403 21.945 C 284.196 22.024,284.036 20.993,284.147 20.292 C 284.158 20.223,284.096 20.167,284.010 20.167 C 283.923 20.167,283.880 20.022,283.914 19.845 C 283.961 19.603,283.897 19.539,283.655 19.586 C 283.360 19.642,283.177 18.755,283.318 17.946 C 283.331 17.870,283.265 17.856,283.171 17.914 C 283.077 17.972,283.000 17.943,283.000 17.848 C 283.000 17.754,282.887 17.720,282.750 17.773 C 282.549 17.850,282.495 17.695,282.475 16.976 C 282.435 15.573,282.382 15.417,281.944 15.417 C 281.835 15.417,281.707 15.051,281.652 14.583 C 281.598 14.125,281.496 13.619,281.426 13.458 C 281.262 13.087,280.975 13.073,281.117 13.444 C 281.181 13.611,281.156 13.680,281.054 13.617 C 280.961 13.559,280.866 13.078,280.843 12.548 C 280.819 12.017,280.795 11.490,280.789 11.375 C 280.783 11.260,280.603 11.167,280.389 11.167 C 280.030 11.167,279.998 11.094,279.975 10.208 C 279.961 9.681,279.942 9.138,279.933 9.000 C 279.924 8.863,279.766 8.750,279.583 8.750 C 279.304 8.750,279.236 8.610,279.163 7.884 C 279.105 7.307,278.952 6.888,278.705 6.624 C 278.462 6.366,278.333 6.020,278.333 5.628 C 278.333 4.949,278.188 4.467,278.016 4.573 C 277.709 4.763,277.517 4.309,277.485 3.316 C 277.464 2.691,277.371 2.202,277.266 2.174 C 276.338 1.929,264.390 2.033,264.167 2.288 M320.132 15.290 C 320.708 15.323,321.608 15.323,322.132 15.290 C 322.655 15.257,322.183 15.230,321.083 15.230 C 319.983 15.231,319.555 15.258,320.132 15.290 M271.000 21.417 C 271.000 22.104,271.056 22.658,271.125 22.647 C 271.758 22.547,271.833 22.664,271.833 23.754 C 271.833 24.751,271.868 24.856,272.250 25.030 C 272.622 25.200,272.667 25.321,272.669 26.152 C 272.672 27.116,272.842 27.583,273.189 27.583 C 273.318 27.583,273.405 27.938,273.434 28.581 C 273.468 29.351,273.556 29.642,273.818 29.855 C 274.065 30.054,274.177 30.379,274.224 31.024 C 274.302 32.088,274.453 32.500,274.768 32.500 C 274.906 32.500,275.006 32.685,275.016 32.958 C 275.073 34.643,275.174 35.000,275.593 35.000 C 275.769 35.000,275.840 35.236,275.859 35.875 C 275.896 37.158,275.898 37.167,276.168 37.338 C 276.327 37.438,274.364 37.496,270.748 37.497 L 265.079 37.500 265.165 36.542 C 265.215 35.971,265.329 35.583,265.444 35.583 C 265.788 35.583,265.884 35.357,265.956 34.383 C 266.009 33.671,266.121 33.343,266.399 33.085 C 266.681 32.824,266.780 32.524,266.812 31.839 C 266.860 30.782,266.939 30.607,267.303 30.747 C 267.452 30.804,267.520 30.798,267.455 30.732 C 267.390 30.667,267.413 30.521,267.507 30.408 C 267.601 30.295,267.667 30.138,267.653 30.059 C 267.507 29.249,267.694 28.191,267.972 28.245 C 268.140 28.277,268.284 28.216,268.292 28.110 C 268.300 28.004,268.347 27.742,268.396 27.528 C 268.446 27.315,268.503 26.815,268.523 26.419 C 268.554 25.824,268.613 25.708,268.860 25.755 C 269.025 25.787,269.147 25.761,269.132 25.698 C 269.025 25.249,269.430 23.356,269.716 22.969 C 269.914 22.701,270.078 22.188,270.105 21.753 C 270.148 21.061,270.575 20.184,270.875 20.172 C 270.944 20.169,271.000 20.729,271.000 21.417 " stroke="none" fill="#eca404" fill-rule="evenodd">
</path></g></svg>